# xmcd
#
# Track frame offsets: 
#        150
#        22021
#        45996
#        64635
#        78038
#        99146
#        115890
#        132395
#        144964
#        174730
#        190920
#
# Disc length: 2809 seconds
#
# Revision: 0
# Processed by: cddbd v1.5PL3 Copyright (c) Steve Scherf et al.
# Submitted via: ExactAudioCopy v0.95a3
#
DISCID=860af70b
DTITLE=¬◊”¿¡¡ - «Ô“π
DYEAR=2003
DGENRE=Pop
TTITLE0=«Ô“π
TTITLE1=√Œ÷–»À
TTITLE2=ø’–Èµƒ√Œ
TTITLE3=·∫Ω≠“π«˙
TTITLE4=À’÷›∫”±ﬂ
TTITLE5=«Ôµƒª≥ƒÓ
TTITLE6=¿·
TTITLE7= «√Œ «’Ê
TTITLE8=º≈ƒØ
TTITLE9=ªÍ›”æ…√Œ
TTITLE10=—∞√Œ«˙
EXTD=
EXTT0=
EXTT1=
EXTT2=
EXTT3=
EXTT4=
EXTT5=
EXTT6=
EXTT7=
EXTT8=
EXTT9=
EXTT10=
PLAYORDER=
